<svg width="25" height="26" viewBox="0 0 22 22" fill="none" xmlns="http://www.w3.org/2000/svg">
<path fill-rule="evenodd" clip-rule="evenodd" d="M10.9998 2.74984C6.44349 2.74984 2.74984 6.44349 2.74984 10.9998C2.74984 15.5562 6.44349 19.2498 10.9998 19.2498C15.5562 19.2498 19.2498 15.5562 19.2498 10.9998C19.2498 6.44349 15.5562 2.74984 10.9998 2.74984ZM0.916504 10.9998C0.916504 5.43097 5.43097 0.916504 10.9998 0.916504C16.5687 0.916504 21.0832 5.43097 21.0832 10.9998C21.0832 16.5687 16.5687 21.0832 10.9998 21.0832C5.43097 21.0832 0.916504 16.5687 0.916504 10.9998Z" fill="black"/>
<path fill-rule="evenodd" clip-rule="evenodd" d="M11.0002 6.41675C11.5064 6.41675 11.9168 6.82715 11.9168 7.33341V14.6667C11.9168 15.173 11.5064 15.5834 11.0002 15.5834C10.4939 15.5834 10.0835 15.173 10.0835 14.6667V7.33341C10.0835 6.82715 10.4939 6.41675 11.0002 6.41675Z" fill="black"/>
<path fill-rule="evenodd" clip-rule="evenodd" d="M6.4165 10.9999C6.4165 10.4937 6.82691 10.0833 7.33317 10.0833H14.6665C15.1728 10.0833 15.5832 10.4937 15.5832 10.9999C15.5832 11.5062 15.1728 11.9166 14.6665 11.9166H7.33317C6.82691 11.9166 6.4165 11.5062 6.4165 10.9999Z" fill="black"/>
</svg>
