<svg width="25" height="26" viewBox="0 0 25 26" fill="none" xmlns="http://www.w3.org/2000/svg">
<path fill-rule="evenodd" clip-rule="evenodd" d="M15.0646 3.09725C15.8863 2.75678 16.767 2.58154 17.6565 2.58154C18.5459 2.58154 19.4266 2.75678 20.2483 3.09725C21.0698 3.43765 21.8162 3.93655 22.4449 4.56545C23.0738 5.19415 23.5731 5.94093 23.9135 6.76246C24.254 7.58414 24.4292 8.46485 24.4292 9.35428C24.4292 10.2437 24.254 11.1244 23.9135 11.9461C23.5731 12.7677 23.0741 13.5142 22.4451 14.1429C22.4451 14.143 22.4452 14.1429 22.4451 14.1429L13.2368 23.3513C12.83 23.7581 12.1704 23.7581 11.7636 23.3513L2.5553 14.1429C1.28527 12.8729 0.571777 11.1504 0.571777 9.35428C0.571777 7.55818 1.28527 5.83565 2.5553 4.56563C3.82533 3.2956 5.54786 2.5821 7.34396 2.5821C9.14005 2.5821 10.8626 3.2956 12.1326 4.56563L12.5002 4.93322L12.8676 4.5658C12.8676 4.56586 12.8677 4.56574 12.8676 4.5658C13.4964 3.93681 14.243 3.43768 15.0646 3.09725ZM17.6565 4.66488C17.0407 4.66488 16.431 4.7862 15.8621 5.0219C15.2933 5.25761 14.7764 5.60308 14.3411 6.03859L13.2368 7.14293C12.83 7.54973 12.1704 7.54973 11.7636 7.14293L10.6595 6.03876C9.78014 5.15944 8.58751 4.66543 7.34396 4.66543C6.1004 4.66543 4.90777 5.15944 4.02844 6.03876C3.14911 6.91809 2.65511 8.11072 2.65511 9.35428C2.65511 10.5978 3.14911 11.7905 4.02844 12.6698L12.5002 21.1416L20.972 12.6698C21.4075 12.2345 21.7531 11.7175 21.9888 11.1486C22.2245 10.5798 22.3459 9.97003 22.3459 9.35428C22.3459 8.73852 22.2245 8.1288 21.9888 7.55994C21.7531 6.99108 21.4076 6.47424 20.9721 6.03894C20.5368 5.60343 20.0196 5.25761 19.4508 5.0219C18.8819 4.78619 18.2722 4.66488 17.6565 4.66488Z" fill="black"/>
</svg>
