<svg width="25" height="26" viewBox="0 0 25 26" fill="none" xmlns="http://www.w3.org/2000/svg">
<path fill-rule="evenodd" clip-rule="evenodd" d="M11.8606 1.76117C12.2368 1.46861 12.7635 1.46861 13.1397 1.76117L22.5147 9.05284C22.7684 9.25019 22.9168 9.55363 22.9168 9.87508V21.3334C22.9168 22.1622 22.5876 22.9571 22.0015 23.5431C21.4155 24.1292 20.6206 24.4584 19.7918 24.4584H5.2085C4.37969 24.4584 3.58484 24.1292 2.99879 23.5431C2.41274 22.9571 2.0835 22.1622 2.0835 21.3334V9.87508C2.0835 9.55363 2.23191 9.25019 2.48564 9.05284L11.8606 1.76117ZM4.16683 10.3845V21.3334C4.16683 21.6097 4.27658 21.8746 4.47193 22.07C4.66728 22.2653 4.93223 22.3751 5.2085 22.3751H19.7918C20.0681 22.3751 20.333 22.2653 20.5284 22.07C20.7237 21.8746 20.8335 21.6097 20.8335 21.3334V10.3845L12.5002 3.90306L4.16683 10.3845Z" fill="black"/>
<path fill-rule="evenodd" clip-rule="evenodd" d="M8.3335 12.9999C8.3335 12.4246 8.79987 11.9583 9.37516 11.9583H15.6252C16.2005 11.9583 16.6668 12.4246 16.6668 12.9999V23.4166C16.6668 23.9919 16.2005 24.4583 15.6252 24.4583C15.0499 24.4583 14.5835 23.9919 14.5835 23.4166V14.0416H10.4168V23.4166C10.4168 23.9919 9.95046 24.4583 9.37516 24.4583C8.79987 24.4583 8.3335 23.9919 8.3335 23.4166V12.9999Z" fill="black"/>
</svg>
