<svg width="96" height="20" viewBox="0 0 96 20" fill="none" xmlns="http://www.w3.org/2000/svg">
<path d="M8.42 0.699999C8.78 0.899999 9.11333 1.15333 9.42 1.46C9.74 1.76667 10.02 2.07333 10.26 2.38C10.5 2.68667 10.68 2.95333 10.8 3.18L10.48 7.58L8.34 9.9L3.64 10L3.68 15.04L2.56 15.32C2.21333 15.1467 1.86 14.9133 1.5 14.62C1.14 14.3133 0.846667 13.9467 0.62 13.52L1.56 8.28L1.32 0.999999L1.9 0.599999C2.08667 0.626666 2.36 0.726666 2.72 0.899999C3.08 1.07333 3.38 1.25333 3.62 1.44C4.14 1.17333 4.68667 0.973333 5.26 0.84C5.84667 0.706666 6.41333 0.626666 6.96 0.599999C7.50667 0.573332 7.99333 0.606666 8.42 0.699999ZM8.16 2.92C7.54667 2.81333 6.83333 2.81333 6.02 2.92C5.22 3.01333 4.47333 3.21333 3.78 3.52L3.64 8.2L8.1 7.2C8.19333 6.46667 8.24667 5.71333 8.26 4.94C8.27333 4.16667 8.24 3.49333 8.16 2.92ZM16.3311 4.68C16.8644 4.73333 17.3578 4.92 17.8111 5.24C18.2644 5.56 18.6644 5.94667 19.0111 6.4C19.3578 6.84 19.6244 7.3 19.8111 7.78L19.6511 12.58C19.5444 12.7933 19.3778 13.0533 19.1511 13.36C18.9378 13.6533 18.6978 13.94 18.4311 14.22C18.1778 14.5 17.9244 14.7333 17.6711 14.92C17.2711 15.04 16.8911 15.1333 16.5311 15.2C16.1711 15.28 15.7644 15.32 15.3111 15.32C14.8711 15.32 14.3178 15.2933 13.6511 15.24C13.3844 15.1333 13.0711 14.9467 12.7111 14.68C12.3511 14.4 12.0244 14.0933 11.7311 13.76C11.4378 13.4133 11.2511 13.0867 11.1711 12.78L11.4311 7.34C11.5378 7.07333 11.6778 6.78 11.8511 6.46C12.0378 6.12667 12.2378 5.80667 12.4511 5.5C12.6778 5.19333 12.8978 4.96 13.1111 4.8C13.4578 4.89333 13.7578 5.04 14.0111 5.24C14.2644 5.42667 14.4578 5.61333 14.5911 5.8C14.2311 6.22667 13.9644 6.77333 13.7911 7.44C13.6178 8.10667 13.5111 8.8 13.4711 9.52C13.4311 10.24 13.4444 10.9133 13.5111 11.54C13.5911 12.1533 13.6978 12.6333 13.8311 12.98C14.3911 13.0867 14.9511 13.1267 15.5111 13.1C16.0844 13.06 16.6178 12.9733 17.1111 12.84C17.3911 12.0267 17.5444 11.2 17.5711 10.36C17.5978 9.50667 17.5378 8.76667 17.3911 8.14C16.9378 7.79333 16.5244 7.52 16.1511 7.32C15.7911 7.10667 15.3711 6.90667 14.8911 6.72C15.1311 6.28 15.3511 5.92 15.5511 5.64C15.7644 5.34667 16.0244 5.02667 16.3311 4.68ZM23.2558 6.96C23.4558 7.37333 23.7691 7.74 24.1958 8.06C24.6224 8.36667 25.1024 8.69333 25.6358 9.04C26.1691 9.37333 26.6958 9.77333 27.2158 10.24C27.7491 10.6933 28.2224 11.2733 28.6358 11.98C28.5291 12.5933 28.3358 13.1733 28.0558 13.72C27.7758 14.2667 27.4358 14.6933 27.0358 15C26.3824 15.1733 25.6624 15.2667 24.8758 15.28C24.0891 15.3067 23.2491 15.2333 22.3558 15.06C22.1824 14.9267 21.9824 14.76 21.7558 14.56C21.5291 14.3467 21.3291 14.1267 21.1558 13.9L21.2558 11.28C21.4824 11.2 21.7491 11.1533 22.0558 11.14C22.3624 11.1133 22.6424 11.1333 22.8958 11.2L23.2158 13.38C23.8024 13.4733 24.4024 13.48 25.0158 13.4C25.6424 13.3067 26.1624 13.16 26.5758 12.96C26.2424 12.52 25.8224 12.1267 25.3158 11.78C24.8224 11.4333 24.3024 11.0933 23.7558 10.76C23.2224 10.4133 22.7224 10.02 22.2558 9.58C21.8024 9.14 21.4491 8.6 21.1958 7.96C21.2358 7.66667 21.3224 7.33333 21.4558 6.96C21.5891 6.57333 21.7491 6.20667 21.9358 5.86C22.1358 5.51333 22.3491 5.24 22.5758 5.04C23.4424 4.8 24.2691 4.68 25.0558 4.68C25.8424 4.66667 26.6824 4.75333 27.5758 4.94C27.7491 5.04667 27.9291 5.23333 28.1158 5.5C28.3158 5.76667 28.4691 5.98 28.5758 6.14L28.2958 8.62C28.0691 8.7 27.8091 8.74 27.5158 8.74C27.2224 8.74 26.9424 8.71333 26.6758 8.66L26.4958 6.62C25.9624 6.58 25.4091 6.58667 24.8358 6.64C24.2758 6.69333 23.7491 6.8 23.2558 6.96ZM37.2192 12.2C37.3126 12.32 37.4126 12.5333 37.5192 12.84C37.6259 13.1467 37.6726 13.4333 37.6592 13.7C37.2992 13.9133 36.8859 14.1267 36.4192 14.34C35.9526 14.5533 35.4992 14.7467 35.0592 14.92C34.6326 15.0933 34.2726 15.2267 33.9792 15.32C33.6326 15.2133 33.2526 15.0467 32.8392 14.82C32.4259 14.5933 32.0526 14.3267 31.7192 14.02C31.3992 13.7 31.1926 13.38 31.0992 13.06L31.5392 7.34L29.9992 7.64L29.4992 6.28L31.5592 4.5L31.4192 2.9C31.6459 2.66 31.9192 2.42667 32.2392 2.2C32.5592 1.96 32.8659 1.78 33.1592 1.66L33.8992 2.18L33.8192 4.96C34.3659 4.90667 34.9259 4.87333 35.4992 4.86C36.0859 4.84667 36.6659 4.86667 37.2392 4.92L37.4392 6.52L36.8192 7.16C35.7526 7.08 34.7326 7.06 33.7592 7.1C33.6659 7.7 33.5992 8.35333 33.5592 9.06C33.5192 9.76667 33.5192 10.4667 33.5592 11.16C33.5992 11.84 33.6926 12.4667 33.8392 13.04L37.2192 12.2ZM48.0981 12.42C48.2181 12.58 48.3381 12.8067 48.4581 13.1C48.5781 13.3933 48.6515 13.6933 48.6781 14L45.9781 15.32C45.6581 15.2267 45.3115 15.0733 44.9381 14.86C44.5781 14.6467 44.3048 14.4533 44.1181 14.28L44.1981 12.82C43.5315 13.5533 42.8581 14.14 42.1781 14.58C41.4981 15.02 40.9048 15.2667 40.3981 15.32C40.1981 15.2133 39.9515 15.0267 39.6581 14.76C39.3781 14.48 39.1115 14.1733 38.8581 13.84C38.6181 13.4933 38.4581 13.1667 38.3781 12.86L38.7981 7.34C38.9981 6.91333 39.2848 6.48667 39.6581 6.06C40.0315 5.62 40.4048 5.26667 40.7781 5C41.7381 4.82667 42.6715 4.72667 43.5781 4.7C44.4848 4.66 45.4848 4.81333 46.5781 5.16C46.7248 5.32 46.8581 5.51333 46.9781 5.74C47.0981 5.96667 47.1981 6.18667 47.2781 6.4C47.3715 6.6 47.4248 6.75333 47.4381 6.86C47.3048 7.44667 47.1248 8.02 46.8981 8.58C46.6848 9.14 46.4248 9.67333 46.1181 10.18L46.3581 12.86L48.0981 12.42ZM41.1381 12.88C41.6181 12.7067 42.1448 12.3333 42.7181 11.76C43.3048 11.1867 43.8381 10.5067 44.3181 9.72L44.3981 6.7C43.8515 6.68667 43.3248 6.71333 42.8181 6.78C42.3115 6.84667 41.8315 6.94667 41.3781 7.08C41.1381 7.74667 40.9648 8.42667 40.8581 9.12C40.7648 9.8 40.7181 10.4333 40.7181 11.02C40.7315 11.5933 40.7781 12.0533 40.8581 12.4C40.9381 12.7467 41.0315 12.9067 41.1381 12.88ZM58.3366 6.86C58.1099 7.83333 57.7766 8.75333 57.3366 9.62L57.7966 16.2C57.6632 16.4933 57.4632 16.8333 57.1966 17.22C56.9432 17.6067 56.6566 17.98 56.3366 18.34C56.0299 18.7 55.7232 18.9867 55.4166 19.2C54.8432 19.36 54.2166 19.4667 53.5366 19.52C52.8566 19.5867 52.1766 19.6 51.4966 19.56C50.8166 19.52 50.1899 19.4467 49.6166 19.34C49.6032 19.1267 49.6099 18.86 49.6366 18.54C49.6632 18.2333 49.7032 17.9267 49.7566 17.62C49.8232 17.3133 49.9032 17.0667 49.9966 16.88C50.4232 17.04 50.9099 17.16 51.4566 17.24C52.0166 17.3333 52.5899 17.38 53.1766 17.38C53.7632 17.38 54.3032 17.3467 54.7966 17.28C55.1032 16.5733 55.3032 15.8333 55.3966 15.06C55.4899 14.3 55.5432 13.38 55.5566 12.3C54.8232 13.18 54.0699 13.8933 53.2966 14.44C52.5232 14.9733 51.8566 15.2667 51.2966 15.32C51.0966 15.2133 50.8499 15.0267 50.5566 14.76C50.2766 14.48 50.0099 14.1733 49.7566 13.84C49.5166 13.4933 49.3566 13.1667 49.2766 12.86L49.6966 7.34C49.8966 6.91333 50.1832 6.48667 50.5566 6.06C50.9299 5.62 51.3032 5.26667 51.6766 5C52.6366 4.82667 53.5699 4.72667 54.4766 4.7C55.3832 4.66 56.3832 4.81333 57.4766 5.16C57.6232 5.32 57.7566 5.51333 57.8766 5.74C57.9966 5.96667 58.0966 6.18667 58.1766 6.4C58.2699 6.6 58.3232 6.75333 58.3366 6.86ZM52.0366 12.88C52.5432 12.6933 53.1032 12.2867 53.7166 11.66C54.3299 11.0333 54.8832 10.2933 55.3766 9.44L55.3566 6.7C54.8099 6.68667 54.2766 6.71333 53.7566 6.78C53.2366 6.84667 52.7432 6.94667 52.2766 7.08C52.0366 7.74667 51.8632 8.42667 51.7566 9.12C51.6632 9.8 51.6166 10.4333 51.6166 11.02C51.6299 11.5933 51.6766 12.0533 51.7566 12.4C51.8366 12.7467 51.9299 12.9067 52.0366 12.88ZM66.2281 4.68C66.5348 4.84 66.8281 5.14 67.1081 5.58C67.4015 6.00667 67.6081 6.45333 67.7281 6.92L67.5481 9.42C67.3215 9.58 67.0348 9.7 66.6881 9.78C66.3415 9.84667 66.0215 9.88667 65.7281 9.9L65.2481 9.44C65.3148 8.94667 65.3548 8.51333 65.3681 8.14C65.3948 7.75333 65.3815 7.41333 65.3281 7.12C64.9148 7.42667 64.5281 7.87333 64.1681 8.46C63.8215 9.03333 63.5015 9.67333 63.2081 10.38L63.2681 15C62.9748 15.08 62.6348 15.12 62.2481 15.12C61.8615 15.12 61.5148 15.08 61.2081 15C60.7948 14.56 60.4548 14.06 60.1881 13.5C60.2815 13.06 60.4148 12.5933 60.5881 12.1C60.7615 11.5933 60.9615 11.0933 61.1881 10.6V9.88L60.9481 7.12L59.2081 7.56C59.1148 7.4 59.0015 7.18 58.8681 6.9C58.7348 6.60667 58.6548 6.30667 58.6281 6L61.3281 4.68C61.4615 4.69333 61.6481 4.76667 61.8881 4.9C62.1415 5.03333 62.3881 5.18 62.6281 5.34C62.8815 5.48667 63.0681 5.61333 63.1881 5.72L63.1081 7.3C63.6548 6.54 64.2081 5.91333 64.7681 5.42C65.3281 4.92667 65.8148 4.68 66.2281 4.68ZM78.2544 12.42C78.3744 12.58 78.4944 12.8067 78.6144 13.1C78.7344 13.3933 78.8077 13.6933 78.8344 14L76.1344 15.32C75.8144 15.2267 75.4677 15.0733 75.0944 14.86C74.7344 14.6467 74.461 14.4533 74.2744 14.28L74.3544 12.82C73.6877 13.5533 73.0144 14.14 72.3344 14.58C71.6544 15.02 71.061 15.2667 70.5544 15.32C70.3544 15.2133 70.1077 15.0267 69.8144 14.76C69.5344 14.48 69.2677 14.1733 69.0144 13.84C68.7744 13.4933 68.6144 13.1667 68.5344 12.86L68.9544 7.34C69.1544 6.91333 69.441 6.48667 69.8144 6.06C70.1877 5.62 70.561 5.26667 70.9344 5C71.8944 4.82667 72.8277 4.72667 73.7344 4.7C74.641 4.66 75.641 4.81333 76.7344 5.16C76.881 5.32 77.0144 5.51333 77.1344 5.74C77.2544 5.96667 77.3544 6.18667 77.4344 6.4C77.5277 6.6 77.581 6.75333 77.5944 6.86C77.461 7.44667 77.281 8.02 77.0544 8.58C76.841 9.14 76.581 9.67333 76.2744 10.18L76.5144 12.86L78.2544 12.42ZM71.2944 12.88C71.7744 12.7067 72.301 12.3333 72.8744 11.76C73.461 11.1867 73.9944 10.5067 74.4744 9.72L74.5544 6.7C74.0077 6.68667 73.481 6.71333 72.9744 6.78C72.4677 6.84667 71.9877 6.94667 71.5344 7.08C71.2944 7.74667 71.121 8.42667 71.0144 9.12C70.921 9.8 70.8744 10.4333 70.8744 11.02C70.8877 11.5933 70.9344 12.0533 71.0144 12.4C71.0944 12.7467 71.1877 12.9067 71.2944 12.88ZM95.1928 12.42C95.3128 12.58 95.4328 12.8067 95.5528 13.1C95.6728 13.3933 95.7461 13.6933 95.7728 14L93.0728 15.32C92.7261 15.1467 92.3595 14.92 91.9728 14.64C91.5861 14.36 91.2795 14.0533 91.0528 13.72C91.2928 12.88 91.4528 12.0333 91.5328 11.18C91.6128 10.3267 91.6328 9.53333 91.5928 8.8C91.5661 8.05333 91.4928 7.44 91.3728 6.96C90.9195 7.14667 90.4395 7.52667 89.9328 8.1C89.4261 8.67333 88.9595 9.35333 88.5328 10.14L88.4128 15C88.1195 15.08 87.7795 15.12 87.3928 15.12C87.0061 15.12 86.6595 15.08 86.3528 15C85.9395 14.56 85.5995 14.06 85.3328 13.5C85.5328 12.5 85.8328 11.56 86.2328 10.68C86.2861 9.93333 86.2928 9.23333 86.2528 8.58C86.2128 7.92667 86.1395 7.38667 86.0328 6.96C85.4995 7.16 84.9661 7.56667 84.4328 8.18C83.8995 8.78 83.4195 9.48 82.9928 10.28L82.8728 15C82.5795 15.08 82.2395 15.12 81.8528 15.12C81.4661 15.12 81.1195 15.08 80.8128 15C80.3995 14.56 80.0595 14.06 79.7928 13.5C79.9128 12.8733 80.0728 12.2733 80.2728 11.7C80.4861 11.1267 80.7261 10.5733 80.9928 10.04V9.88L80.7528 7.12L79.0128 7.56C78.9195 7.4 78.8061 7.18 78.6728 6.9C78.5395 6.60667 78.4595 6.30667 78.4328 6L81.1328 4.68C81.2661 4.69333 81.4528 4.76667 81.6928 4.9C81.9461 5.03333 82.1928 5.18 82.4328 5.34C82.6861 5.48667 82.8728 5.61333 82.9928 5.72L82.9128 7.12C83.5795 6.36 84.2261 5.76667 84.8528 5.34C85.4928 4.9 86.0195 4.68 86.4328 4.68C86.6595 4.78667 86.8995 4.99333 87.1528 5.3C87.4195 5.60667 87.6595 5.94667 87.8728 6.32C88.0861 6.68 88.2261 7.02 88.2928 7.34C88.9995 6.51333 89.6995 5.86667 90.3928 5.4C91.0995 4.92 91.6928 4.68 92.1728 4.68C92.3728 4.78667 92.5928 4.97333 92.8328 5.24C93.0728 5.50667 93.2928 5.80667 93.4928 6.14C93.6928 6.46 93.8328 6.78 93.9128 7.1L93.5728 12.84L95.1928 12.42Z" fill="black"/>
</svg>
