<svg width="25" height="26" viewBox="0 0 25 26" fill="none" xmlns="http://www.w3.org/2000/svg">
<path fill-rule="evenodd" clip-rule="evenodd" d="M11.4585 4.66659C7.43142 4.66659 4.16683 7.93118 4.16683 11.9583C4.16683 15.9853 7.43142 19.2499 11.4585 19.2499C15.4856 19.2499 18.7502 15.9853 18.7502 11.9583C18.7502 7.93118 15.4856 4.66659 11.4585 4.66659ZM2.0835 11.9583C2.0835 6.78058 6.28083 2.58325 11.4585 2.58325C16.6362 2.58325 20.8335 6.78058 20.8335 11.9583C20.8335 17.1359 16.6362 21.3333 11.4585 21.3333C6.28083 21.3333 2.0835 17.1359 2.0835 11.9583Z" fill="black"/>
<path fill-rule="evenodd" clip-rule="evenodd" d="M16.6073 17.1071C17.0141 16.7003 17.6737 16.7003 18.0805 17.1071L22.6117 21.6384C23.0185 22.0451 23.0185 22.7047 22.6117 23.1115C22.2049 23.5183 21.5454 23.5183 21.1386 23.1115L16.6073 18.5802C16.2005 18.1734 16.2005 17.5139 16.6073 17.1071Z" fill="black"/>
</svg>
